<?xml version='1.0' encoding='utf-8'?>
<!DOCTYPE svg PUBLIC '-//W3C//DTD SVG 1.1//EN' 'http://www.w3.org/Graphics/SVG/1.1/DTD/svg11.dtd'>
<svg version="1.1" xmlns="http://www.w3.org/2000/svg" viewBox="0 0 512 512" xmlns:xlink="http://www.w3.org/1999/xlink" enable-background="new 0 0 512 512">
  <g>
    <g>
      <circle cx="359.1" cy="421.6" r="49"/>
      <circle cx="152.9" cy="421.6" r="49"/>
      <path d="m480.6,214.7c0,0-374.6,0.2-376.3,0.7l-78.1,20.4c-9,2.4-15.3,10.5-15.3,19.8v125.3c0,11.3 9.1,20.4 20.4,20.4h34.3c9.3-39.6 44.8-69.2 87.2-69.2 42.4,0 77.9,29.6 87.2,69.2h31.9c9.3-39.6 44.8-69.2 87.2-69.2 42.4,0 77.9,29.6 87.2,69.2h34.3c11.3,0 20.4-9.1 20.4-20.4v-145.8c5.68434e-14-11.3-9.1-20.4-20.4-20.4z"/>
      <path d="M223.2,173.8V41.6h-71.3c-9.8,0-18.2,6.9-20,16.5l-22.7,115.8c0.1,0,0.2,0,0.3,0H223.2z"/>
      <rect width="74.6" x="264" y="41.6" height="132.2"/>
      <path d="M480.6,41.6H379.5v132.2h101.1H501V62C501,50.7,491.9,41.6,480.6,41.6z"/>
    </g>
  </g>
</svg>
